<?xml version="1.0" encoding="UTF-8" standalone="no"?>
<!DOCTYPE svg PUBLIC "-//W3C//DTD SVG 1.1//EN" "http://www.w3.org/Graphics/SVG/1.1/DTD/svg11.dtd">
<!-- Genererad av Microsoft Visio, SVG-export workflow-prepare.svg TM workflow -->
<svg xmlns="http://www.w3.org/2000/svg" xmlns:xlink="http://www.w3.org/1999/xlink" xmlns:ev="http://www.w3.org/2001/xml-events"
		xmlns:v="http://schemas.microsoft.com/visio/2003/SVGExtensions/" width="11.6929in" height="8.26772in"
		viewBox="0 0 841.89 595.276" xml:space="preserve" color-interpolation-filters="sRGB" class="st34">
	<v:documentProperties v:langID="1033" v:metric="true" v:viewMarkup="false">
		<v:userDefs>
			<v:ud v:nameU="msvSubprocessMaster" v:prompt="" v:val="VT4(Rectangle)"/>
			<v:ud v:nameU="msvNoAutoConnect" v:val="VT0(1):26"/>
		</v:userDefs>
	</v:documentProperties>

	<style type="text/css">
	<![CDATA[
		.st1 {fill:none;stroke:#a5a5a5;stroke-linecap:round;stroke-linejoin:round;stroke-width:0.5}
		.st2 {fill:#000000;font-family:Calibri;font-size:0.666664em}
		.st3 {visibility:visible}
		.st4 {fill:#5b9bd5;fill-opacity:0.25;filter:url(#filter_2);stroke:#5b9bd5;stroke-opacity:0.25}
		.st5 {fill:#4f87bb;stroke:#40709c;stroke-width:0.75}
		.st6 {fill:#feffff;font-family:Verdana;font-size:0.833336em}
		.st7 {font-size:1em}
		.st8 {fill:#70ad47;fill-opacity:0.22;filter:url(#filter_2);stroke:#70ad47;stroke-opacity:0.22}
		.st9 {fill:#70ad47;stroke:#c7c8c8;stroke-width:0.25}
		.st10 {marker-end:url(#mrkr4-28);stroke:#5b9bd5;stroke-dasharray:3,3;stroke-linecap:round;stroke-linejoin:round;stroke-width:1}
		.st11 {fill:#5b9bd5;fill-opacity:1;stroke:#5b9bd5;stroke-opacity:1;stroke-width:0.28409090909091}
		.st12 {fill:#ffffff;stroke:none;stroke-linecap:butt;stroke-width:7.2}
		.st13 {fill:#4f87bb;font-family:Calibri;font-size:0.75em}
		.st14 {marker-end:url(#mrkr4-36);stroke:#5b9bd5;stroke-dasharray:3,3;stroke-linecap:round;stroke-linejoin:round;stroke-width:1}
		.st15 {marker-end:url(#mrkr4-28);stroke:#5b9bd5;stroke-linecap:round;stroke-linejoin:round;stroke-width:1}
		.st16 {fill:#4f87bb;font-family:Calibri;font-size:0.499992em}
		.st17 {fill:none;stroke:none;stroke-width:0.25}
		.st18 {fill:#7f7f7f;font-family:Calibri;font-size:0.75em}
		.st19 {fill:#5b9bd5;fill-opacity:0.22;filter:url(#filter_2);stroke:#5b9bd5;stroke-opacity:0.22}
		.st20 {fill:#5b9bd5;stroke:#5b9bd5;stroke-width:0.25}
		.st21 {fill:#ffffff;stroke:none;stroke-linecap:butt}
		.st22 {fill:url(#grad0-106)}
		.st23 {stroke:#5b9bd5;stroke-width:0.75}
		.st24 {fill:#7f7f7f;font-family:Calibri;font-size:0.666664em}
		.st25 {marker-end:url(#mrkr4-36);marker-start:url(#mrkr4-162);stroke:#5b9bd5;stroke-dasharray:3,3;stroke-linecap:round;stroke-linejoin:round;stroke-width:1}
		.st26 {fill:#759fcc;fill-opacity:0.22;filter:url(#filter_2);stroke:#759fcc;stroke-opacity:0.22}
		.st27 {fill:#759fcc;stroke:#c7c8c8;stroke-width:0.25}
		.st28 {fill:#feffff;font-family:Verdana;font-size:0.499992em}
		.st29 {stroke:#7f7f7f;stroke-linecap:round;stroke-linejoin:round;stroke-width:1}
		.st30 {fill:#f2f2f2;fill-opacity:0.27;stroke:#ff0000;stroke-dasharray:5.25,3.75;stroke-width:0.75}
		.st31 {fill:#000000;font-family:Verdana;font-size:0.666664em;font-weight:bold}
		.st32 {font-size:1em;font-weight:normal}
		.st33 {fill:#f2f2f2;fill-opacity:0.27;stroke:#7f7f7f;stroke-dasharray:5.25,3.75;stroke-width:0.75}
		.st34 {fill:none;fill-rule:evenodd;font-size:12px;overflow:visible;stroke-linecap:square;stroke-miterlimit:3}
	]]>
	</style>

	<defs id="Patterns_And_Gradients">
		<linearGradient id="grad0-106" x1="0" y1="0" x2="1" y2="0" gradientTransform="rotate(60 0.5 0.5)">
			<stop offset="0" stop-color="#e9eff7" stop-opacity="1"/>
			<stop offset="0.24" stop-color="#f4f7fb" stop-opacity="1"/>
			<stop offset="0.54" stop-color="#feffff" stop-opacity="1"/>
		</linearGradient>
	</defs>
	<defs id="Markers">
		<g id="lend4">
			<path d="M 2 1 L 0 0 L 2 -1 L 2 1 " style="stroke:none"/>
		</g>
		<marker id="mrkr4-28" class="st11" v:arrowType="4" v:arrowSize="2" v:setback="7.04" refX="-7.04" orient="auto"
				markerUnits="strokeWidth" overflow="visible">
			<use xlink:href="#lend4" transform="scale(-3.52,-3.52) "/>
		</marker>
		<marker id="mrkr4-36" class="st11" v:arrowType="4" v:arrowSize="2" v:setback="6.68" refX="-6.68" orient="auto"
				markerUnits="strokeWidth" overflow="visible">
			<use xlink:href="#lend4" transform="scale(-3.52,-3.52) "/>
		</marker>
		<marker id="mrkr4-162" class="st11" v:arrowType="4" v:arrowSize="2" v:setback="6.68" refX="6.68" orient="auto"
				markerUnits="strokeWidth" overflow="visible">
			<use xlink:href="#lend4" transform="scale(3.52) "/>
		</marker>
	</defs>
	<defs id="Filters">
		<filter id="filter_2">
			<feGaussianBlur stdDeviation="2"/>
		</filter>
	</defs>
	<g v:mID="10" v:index="3" v:groupContext="foregroundPage">
		<v:userDefs>
			<v:ud v:nameU="msvThemeOrder" v:val="VT0(0):26"/>
		</v:userDefs>
		<title>TM workflow</title>
		<v:pageProperties v:drawingScale="0.0393701" v:pageScale="0.0393701" v:drawingUnits="24" v:shadowOffsetX="8.50394"
				v:shadowOffsetY="-8.50394"/>
		<v:layer v:name="Connector" v:index="0"/>
		<g id="shape2-1" v:mID="2" v:groupContext="shape" transform="translate(529.232,-366.928)">
			<title>Ark.2</title>
			<desc>SPRÅKBANKEN: Sparv API</desc>
			<v:textBlock v:margins="rect(4,4,4,4)" v:tabSpace="42.5197" v:verticalAlign="0"/>
			<v:textRect cx="54" cy="540.503" width="108" height="109.546"/>
			<rect x="0" y="485.729" width="108" height="109.546" class="st1"/>
			<text x="4" y="496.93" class="st2" v:langID="1053"><v:paragraph/><v:tabList/>SPRÅKBANKEN: Sparv API</text>		</g>
		<g id="shape4-4" v:mID="4" v:groupContext="shape" transform="translate(178.284,-475.353)">
			<title>Åtgärd</title>
			<desc>Clean up Segment</desc>
			<v:userDefs>
				<v:ud v:nameU="visVersion" v:prompt="" v:val="VT0(15):26"/>
			</v:userDefs>
			<v:textBlock v:margins="rect(4,4,4,4)" v:tabSpace="42.5197"/>
			<v:textRect cx="41.6339" cy="580.535" width="83.27" height="29.4803"/>
			<g id="shadow4-5" v:groupContext="shadow" v:shadowOffsetX="0.345598" v:shadowOffsetY="-1.97279" v:shadowType="1"
					transform="matrix(1,0,0,1,0.345598,1.97279)" class="st3">
				<rect x="0" y="565.795" width="83.2677" height="29.4803" rx="8.50394" ry="8.50394" class="st4"/>
			</g>
			<rect x="0" y="565.795" width="83.2677" height="29.4803" rx="8.50394" ry="8.50394" class="st5"/>
			<text x="19.59" y="577.54" class="st6" v:langID="1053"><v:paragraph v:horizAlign="1"/><v:tabList/>Clean up<v:newlineChar/><tspan
						x="19.15" dy="1.2em" class="st7">Segment</tspan></text>		</g>
		<g id="shape5-11" v:mID="5" v:groupContext="shape" transform="translate(369.169,-397.292)">
			<title>Åtgärd.7</title>
			<desc>Annotate</desc>
			<v:userDefs>
				<v:ud v:nameU="visVersion" v:prompt="" v:val="VT0(15):26"/>
			</v:userDefs>
			<v:textBlock v:margins="rect(4,4,4,4)" v:tabSpace="42.5197"/>
			<v:textRect cx="41.6339" cy="580.535" width="83.27" height="29.4803"/>
			<g id="shadow5-12" v:groupContext="shadow" v:shadowOffsetX="0.345598" v:shadowOffsetY="-1.97279" v:shadowType="1"
					transform="matrix(1,0,0,1,0.345598,1.97279)" class="st3">
				<rect x="0" y="565.795" width="83.2677" height="29.4803" rx="8.50394" ry="8.50394" class="st8"/>
			</g>
			<rect x="0" y="565.795" width="83.2677" height="29.4803" rx="8.50394" ry="8.50394" class="st9"/>
			<text x="18.93" y="583.54" class="st6" v:langID="1053"><v:paragraph v:horizAlign="1"/><v:tabList/>Annotate</text>		</g>
		<g id="shape6-17" v:mID="6" v:groupContext="shape" transform="translate(541.598,-397.292)">
			<title>Åtgärd.6</title>
			<desc>Annotate</desc>
			<v:userDefs>
				<v:ud v:nameU="visVersion" v:prompt="" v:val="VT0(15):26"/>
			</v:userDefs>
			<v:textBlock v:margins="rect(4,4,4,4)" v:tabSpace="42.5197"/>
			<v:textRect cx="41.6339" cy="580.535" width="83.27" height="29.4803"/>
			<g id="shadow6-18" v:groupContext="shadow" v:shadowOffsetX="0.345598" v:shadowOffsetY="-1.97279" v:shadowType="1"
					transform="matrix(1,0,0,1,0.345598,1.97279)" class="st3">
				<rect x="0" y="565.795" width="83.2677" height="29.4803" rx="8.50394" ry="8.50394" class="st8"/>
			</g>
			<rect x="0" y="565.795" width="83.2677" height="29.4803" rx="8.50394" ry="8.50394" class="st9"/>
			<text x="18.93" y="583.54" class="st6" v:langID="1053"><v:paragraph v:horizAlign="1"/><v:tabList/>Annotate</text>		</g>
		<g id="shape7-23" v:mID="7" v:groupContext="shape" v:layerMember="0" transform="translate(261.552,-483.007)">
			<title>Dynamic connector.11</title>
			<desc>TEXT FILES</desc>
			<v:textBlock v:margins="rect(4,4,4,4)" v:tabSpace="42.5197"/>
			<v:textRect cx="70.1015" cy="574.566" width="48.63" height="18.8036"/>
			<path d="M0 588.19 L30.46 588.19 A14.1732 14.1732 -180 0 0 37.76 586.16 A2.3622 2.3622 0 0 1 40.19 586.16 A14.1732 14.1732
						 -180 0 0 47.49 588.19 L100.58 588.19" class="st10"/>
			<rect v:rectContext="textBkgnd" x="50.8073" y="569.166" width="38.5884" height="10.7998" class="st12"/>
			<text x="50.81" y="577.27" class="st13" v:langID="1053"><v:paragraph v:horizAlign="1"/><v:tabList/>TEXT FILES</text>		</g>
		<g id="shape8-31" v:mID="8" v:groupContext="shape" v:layerMember="0" transform="translate(452.437,-404.946)">
			<title>Dynamic connector.12</title>
			<desc>TEXT</desc>
			<v:textBlock v:margins="rect(4,4,4,4)" v:tabSpace="42.5197"/>
			<v:textRect cx="40.9584" cy="562.701" width="45" height="18.8036"/>
			<path d="M0 588.19 C22.52 564.37 60.57 566.21 83.8 583.63 L84.07 583.86" class="st14"/>
			<rect v:rectContext="textBkgnd" x="32.0397" y="557.301" width="17.8374" height="10.7998" class="st12"/>
			<text x="32.04" y="565.4" class="st13" v:langID="1053"><v:paragraph v:horizAlign="1"/><v:tabList/>TEXT</text>		</g>
		<g id="shape9-39" v:mID="9" v:groupContext="shape" transform="translate(367.997,-286.902)">
			<title>Åtgärd.16</title>
			<desc>Prepare</desc>
			<v:userDefs>
				<v:ud v:nameU="visVersion" v:prompt="" v:val="VT0(15):26"/>
			</v:userDefs>
			<v:textBlock v:margins="rect(4,4,4,4)" v:tabSpace="42.5197"/>
			<v:textRect cx="41.6339" cy="580.535" width="83.27" height="29.4803"/>
			<g id="shadow9-40" v:groupContext="shadow" v:shadowOffsetX="0.345598" v:shadowOffsetY="-1.97279" v:shadowType="1"
					transform="matrix(1,0,0,1,0.345598,1.97279)" class="st3">
				<rect x="0" y="565.795" width="83.2677" height="29.4803" rx="8.50394" ry="8.50394" class="st8"/>
			</g>
			<rect x="0" y="565.795" width="83.2677" height="29.4803" rx="8.50394" ry="8.50394" class="st9"/>
			<text x="22.28" y="583.54" class="st6" v:langID="1053"><v:paragraph v:horizAlign="1"/><v:tabList/>Prepare</text>		</g>
		<g id="shape10-45" v:mID="10" v:groupContext="shape" v:layerMember="0" transform="translate(403.716,-397.292)">
			<title>Dynamic connector.17</title>
			<desc>Zipped XML’s</desc>
			<v:textBlock v:margins="rect(4,4,4,4)" v:tabSpace="42.5197"/>
			<v:textRect cx="7.30751" cy="626.332" width="30" height="22.4034"/>
			<path d="M7.09 595.28 L7.09 611.37" class="st15"/>
			<rect v:rectContext="textBkgnd" x="-1.00649" y="619.132" width="16.6284" height="14.4001" class="st12"/>
			<text x="-1.01" y="624.53" class="st16" v:langID="1053"><v:paragraph v:horizAlign="1"/><v:tabList/>Zipped<v:newlineChar/><tspan
						x="0" dy="1.2em" class="st7">XML</tspan>’s</text>		</g>
		<g id="shape11-53" v:mID="11" v:groupContext="shape" transform="translate(482.203,-408.064)">
			<title>Ark.11</title>
			<desc>HTTP</desc>
			<v:textBlock v:margins="rect(4,4,4,4)" v:tabSpace="42.5197"/>
			<v:textRect cx="14.9889" cy="591.307" width="29.98" height="7.93701"/>
			<rect x="0" y="587.339" width="29.9778" height="7.93701" class="st17"/>
			<text x="5.47" y="594.01" class="st18" v:langID="1053"><v:paragraph v:horizAlign="1"/><v:tabList/>HTTP</text>		</g>
		<g id="shape13-56" v:mID="13" v:groupContext="shape" transform="translate(367.997,-208.95)">
			<title>Åtgärd.41</title>
			<desc>Compute</desc>
			<v:userDefs>
				<v:ud v:nameU="visVersion" v:prompt="" v:val="VT0(15):26"/>
			</v:userDefs>
			<v:textBlock v:margins="rect(4,4,4,4)" v:tabSpace="42.5197"/>
			<v:textRect cx="41.6339" cy="580.535" width="83.27" height="29.4803"/>
			<g id="shadow13-57" v:groupContext="shadow" v:shadowOffsetX="0.345598" v:shadowOffsetY="-1.97279" v:shadowType="1"
					transform="matrix(1,0,0,1,0.345598,1.97279)" class="st3">
				<rect x="0" y="565.795" width="83.2677" height="29.4803" rx="8.50394" ry="8.50394" class="st8"/>
			</g>
			<rect x="0" y="565.795" width="83.2677" height="29.4803" rx="8.50394" ry="8.50394" class="st9"/>
			<text x="19.02" y="583.54" class="st6" v:langID="1053"><v:paragraph v:horizAlign="1"/><v:tabList/>Compute</text>		</g>
		<g id="shape14-62" v:mID="14" v:groupContext="shape" v:layerMember="0" transform="translate(402.545,-286.902)">
			<title>Dynamic connector.43</title>
			<desc>corpus</desc>
			<v:textBlock v:margins="rect(4,4,4,4)" v:tabSpace="42.5197"/>
			<v:textRect cx="7.4619" cy="620.504" width="45" height="18.8036"/>
			<path d="M7.09 595.28 L7.09 636.71" class="st15"/>
			<rect v:rectContext="textBkgnd" x="-4.87135" y="615.104" width="24.6665" height="10.7998" class="st12"/>
			<text x="-4.87" y="623.2" class="st13" v:langID="1053"><v:paragraph v:horizAlign="1"/><v:tabList/>corpus</text>		</g>
		<g id="shape18-69" v:mID="18" v:groupContext="shape" v:layerMember="0" transform="translate(418,-522.142)">
			<title>Dynamic connector.54</title>
			<path d="M-6.98 595.28 L-7.11 605.54" class="st15"/>
		</g>
		<g id="shape20-74" v:mID="20" v:groupContext="shape" transform="translate(403.527,-341.064)">
			<title>Första nod.56</title>
			<v:userDefs>
				<v:ud v:nameU="visVersion" v:prompt="" v:val="VT0(15):26"/>
			</v:userDefs>
			<g id="shadow20-75" v:groupContext="shadow" v:shadowOffsetX="0.345598" v:shadowOffsetY="-1.97279" v:shadowType="1"
					transform="matrix(1,0,0,1,0.345598,1.97279)" class="st3">
				<ellipse cx="6.10461" cy="589.171" rx="6.10461" ry="6.10461" class="st19"/>
			</g>
			<ellipse cx="6.10461" cy="589.171" rx="6.10461" ry="6.10461" class="st20"/>
		</g>
		<g id="shape21-79" v:mID="21" v:groupContext="shape" v:layerMember="0" transform="translate(402.545,-341.064)">
			<title>Dynamic connector.57</title>
			<path d="M7.09 595.28 L7.09 612.92" class="st15"/>
		</g>
		<g id="shape22-84" v:mID="22" v:groupContext="shape" v:layerMember="0" transform="translate(390.534,-136.95)">
			<title>Dynamic connector.60</title>
			<desc>FOR EACH CONFIG</desc>
			<v:textBlock v:margins="rect(4,4,4,4)" v:tabSpace="42.5197"/>
			<v:textRect cx="-47.5354" cy="383.409" width="77.75" height="18.8036"/>
			<path d="M-6.32 595.28 L-6.32 607.49 A12.2143 12.2143 0 0 1 -18.54 619.7 L-77.18 619.7 A14.1732 14.1732 0 0 1 -91.35
						 605.53 L-91.35 408.92 A14.1732 14.1732 0 0 1 -77.18 394.75 L-18.4 394.75 A10.5473 10.5473 0 0 1 -7.85 405.3
						 L-7.85 408.8" class="st15"/>
			<rect v:rectContext="textBkgnd" x="-81.3887" y="378.01" width="67.7065" height="10.7998" class="st21"/>
			<text x="-81.39" y="386.11" class="st13" v:langID="1053"><v:paragraph v:horizAlign="1"/><v:tabList/>FOR EACH CONFIG</text>		</g>
		<g id="shape23-91" v:mID="23" v:groupContext="shape" v:layerMember="0" transform="translate(261.552,-294.556)">
			<title>Dynamic connector.61</title>
			<desc>CONFIGS</desc>
			<v:textBlock v:margins="rect(4,4,4,4)" v:tabSpace="42.5197"/>
			<v:textRect cx="70.6383" cy="581.522" width="45" height="18.8036"/>
			<path d="M0 588.19 L29.12 588.19 A14.1732 14.1732 -180 0 0 36.42 586.16 A2.3622 2.3622 0 0 1 38.85 586.16 A14.1732 14.1732
						 -180 0 0 46.15 588.19 L99.41 588.19" class="st10"/>
			<rect v:rectContext="textBkgnd" x="54.2467" y="576.123" width="32.7832" height="10.7998" class="st12"/>
			<text x="54.25" y="584.22" class="st13" v:langID="1053"><v:paragraph v:horizAlign="1"/><v:tabList/>CONFIGS</text>		</g>
		<g id="shape24-98" v:mID="24" v:groupContext="shape" v:layerMember="0" transform="translate(402.545,-136.95)">
			<title>Dynamic connector.62</title>
			<path d="M7.09 595.28 L7.09 613.65" class="st15"/>
		</g>
		<g id="shape25-103" v:mID="25" v:groupContext="shape" transform="translate(403.547,-99.367)">
			<title>Sista nod.63</title>
			<v:userDefs>
				<v:ud v:nameU="visVersion" v:prompt="" v:val="VT0(15):26"/>
			</v:userDefs>
			<path d="M10.95 589.19 A4.86749 4.86749 -180 1 0 1.22 589.19 A4.86749 4.86749 -180 1 0 10.95 589.19 Z" class="st22"/>
			<path d="M12.17 589.19 A6.08436 6.08436 -180 1 0 -0 589.19 A6.08436 6.08436 -180 1 0 12.17 589.19" class="st23"/>
			<path d="M10.95 589.19 A4.86749 4.86749 -180 1 0 1.22 589.19 A4.86749 4.86749 -180 1 0 10.95 589.19" class="st23"/>
		</g>
		<g id="shape26-109" v:mID="26" v:groupContext="shape" transform="translate(367.997,-136.95)">
			<title>Åtgärd.64</title>
			<desc>Store</desc>
			<v:userDefs>
				<v:ud v:nameU="visVersion" v:prompt="" v:val="VT0(15):26"/>
			</v:userDefs>
			<v:textBlock v:margins="rect(4,4,4,4)" v:tabSpace="42.5197"/>
			<v:textRect cx="41.6339" cy="580.535" width="83.27" height="29.4803"/>
			<g id="shadow26-110" v:groupContext="shadow" v:shadowOffsetX="0.345598" v:shadowOffsetY="-1.97279" v:shadowType="1"
					transform="matrix(1,0,0,1,0.345598,1.97279)" class="st3">
				<rect x="0" y="565.795" width="83.2677" height="29.4803" rx="8.50394" ry="8.50394" class="st8"/>
			</g>
			<rect x="0" y="565.795" width="83.2677" height="29.4803" rx="8.50394" ry="8.50394" class="st9"/>
			<text x="28.1" y="583.54" class="st6" v:langID="1053"><v:paragraph v:horizAlign="1"/><v:tabList/>Store</text>		</g>
		<g id="shape27-115" v:mID="27" v:groupContext="shape" v:layerMember="0" transform="translate(402.545,-208.95)">
			<title>Dynamic connector.65</title>
			<desc>TOPIC MODEL</desc>
			<v:textBlock v:margins="rect(4,4,4,4)" v:tabSpace="42.5197"/>
			<v:textRect cx="7.4619" cy="616.535" width="61.51" height="18.8036"/>
			<path d="M7.09 595.28 L7.09 630.76" class="st15"/>
			<rect v:rectContext="textBkgnd" x="-18.2703" y="611.136" width="51.4644" height="10.7998" class="st12"/>
			<text x="-18.27" y="619.24" class="st13" v:langID="1053"><v:paragraph v:horizAlign="1"/><v:tabList/>TOPIC MODEL</text>		</g>
		<g id="shape29-122" v:mID="29" v:groupContext="shape" transform="translate(178.284,-509.953)">
			<title>Ark.29</title>
			<desc>Daedalus volumes</desc>
			<v:textBlock v:margins="rect(4,4,4,4)" v:tabSpace="42.5197"/>
			<v:textRect cx="33.9849" cy="591.307" width="67.97" height="7.93701"/>
			<rect x="0" y="587.339" width="67.9698" height="7.93701" class="st17"/>
			<text x="4.43" y="593.71" class="st24" v:langID="1053"><v:paragraph v:horizAlign="1"/><v:tabList/>Daedalus volumes</text>		</g>
		<g id="shape30-125" v:mID="30" v:groupContext="shape" transform="translate(178.284,-286.902)">
			<title>Åtgärd.71</title>
			<desc>Select configs</desc>
			<v:userDefs>
				<v:ud v:nameU="visVersion" v:prompt="" v:val="VT0(15):26"/>
			</v:userDefs>
			<v:textBlock v:margins="rect(4,4,4,4)" v:tabSpace="42.5197"/>
			<v:textRect cx="41.6339" cy="580.535" width="83.27" height="29.4803"/>
			<g id="shadow30-126" v:groupContext="shadow" v:shadowOffsetX="0.345598" v:shadowOffsetY="-1.97279" v:shadowType="1"
					transform="matrix(1,0,0,1,0.345598,1.97279)" class="st3">
				<rect x="0" y="565.795" width="83.2677" height="29.4803" rx="8.50394" ry="8.50394" class="st4"/>
			</g>
			<rect x="0" y="565.795" width="83.2677" height="29.4803" rx="8.50394" ry="8.50394" class="st5"/>
			<text x="6.9" y="583.54" class="st6" v:langID="1053"><v:paragraph v:horizAlign="1"/><v:tabList/>Select configs</text>		</g>
		<g id="shape31-131" v:mID="31" v:groupContext="shape" transform="translate(369.169,-475.353)">
			<title>Åtgärd.113</title>
			<desc>Split</desc>
			<v:userDefs>
				<v:ud v:nameU="visVersion" v:prompt="" v:val="VT0(15):26"/>
			</v:userDefs>
			<v:textBlock v:margins="rect(4,4,4,4)" v:tabSpace="42.5197"/>
			<v:textRect cx="41.6339" cy="580.535" width="83.27" height="29.4803"/>
			<g id="shadow31-132" v:groupContext="shadow" v:shadowOffsetX="0.345598" v:shadowOffsetY="-1.97279" v:shadowType="1"
					transform="matrix(1,0,0,1,0.345598,1.97279)" class="st3">
				<rect x="0" y="565.795" width="83.2677" height="29.4803" rx="8.50394" ry="8.50394" class="st8"/>
			</g>
			<rect x="0" y="565.795" width="83.2677" height="29.4803" rx="8.50394" ry="8.50394" class="st9"/>
			<text x="30.39" y="583.54" class="st6" v:langID="1053"><v:paragraph v:horizAlign="1"/><v:tabList/>Split</text>		</g>
		<g id="shape32-137" v:mID="32" v:groupContext="shape" v:layerMember="0" transform="translate(403.716,-475.353)">
			<title>Dynamic connector.114</title>
			<path d="M7.09 595.28 L7.09 636.82" class="st15"/>
		</g>
		<g id="shape33-142" v:mID="33" v:groupContext="shape" v:layerMember="0" transform="translate(393.907,-397.292)">
			<title>Dynamic connector.152</title>
			<desc>FOR EACH VOLUME</desc>
			<v:textBlock v:margins="rect(4,4,4,4)" v:tabSpace="42.5197"/>
			<v:textRect cx="-53.9066" cy="448.475" width="81.81" height="18.8036"/>
			<path d="M-6.41 595.28 L-6.41 607.49 A12.2143 12.2143 0 0 1 -18.62 619.7 L-79.21 619.7 A14.1732 14.1732 0 0 1 -93.38
						 605.53 L-93.38 472.96 A14.1732 14.1732 0 0 1 -79.21 458.78 L-21.94 458.78 A14.1732 14.1732 0 0 1 -7.77 472.96
						 L-7.77 480.69" class="st15"/>
			<rect v:rectContext="textBkgnd" x="-89.7923" y="443.075" width="71.7715" height="10.7998" class="st12"/>
			<text x="-89.79" y="451.17" class="st13" v:langID="1053"><v:paragraph v:horizAlign="1"/><v:tabList/>FOR EACH VOLUME</text>		</g>
		<g id="shape34-149" v:mID="34" v:groupContext="shape" v:layerMember="0" transform="translate(369.169,-412.033)">
			<title>Dynamic connector.153</title>
			<desc>FOR EACH ARTICLE</desc>
			<v:textBlock v:margins="rect(4,4,4,4)" v:tabSpace="42.5197"/>
			<v:textRect cx="-19.0901" cy="551.781" width="78.83" height="18.8036"/>
			<path d="M0 595.28 L-12.42 595.28 A12.4164 12.4164 0 0 1 -24.83 582.86 L-24.83 573.38 A14.1732 14.1732 0 0 1 -10.66 559.21
						 L6.31 559.21 A10.6647 10.6647 0 0 1 16.97 569.87 L16.97 573.5" class="st15"/>
			<rect v:rectContext="textBkgnd" x="-53.4818" y="546.381" width="68.7832" height="10.7998" class="st12"/>
			<text x="-53.48" y="554.48" class="st13" v:langID="1053"><v:paragraph v:horizAlign="1"/><v:tabList/>FOR EACH ARTICLE</text>		</g>
		<g id="shape35-156" v:mID="35" v:groupContext="shape" v:layerMember="0" transform="translate(452.437,-404.946)">
			<title>Dynamic connector.154</title>
			<desc>XML</desc>
			<v:textBlock v:margins="rect(4,4,4,4)" v:tabSpace="42.5197"/>
			<v:textRect cx="41.3239" cy="615.19" width="45" height="18.8036"/>
			<path d="M5.13 592.47 L5.41 592.7 C26.15 606.68 67.1 604.45 84 592.97 L84.26 592.73" class="st25"/>
			<rect v:rectContext="textBkgnd" x="33.2489" y="609.79" width="16.1499" height="10.7998" class="st12"/>
			<text x="33.25" y="617.89" class="st13" v:langID="1053"><v:paragraph v:horizAlign="1"/><v:tabList/>XML</text>		</g>
		<g id="shape38-166" v:mID="38" v:groupContext="shape" transform="translate(176.513,-99.367)">
			<title>Action.215</title>
			<desc>RESEARCHER</desc>
			<v:userDefs>
				<v:ud v:nameU="Sharpness" v:val="VT0(0.125):26"/>
				<v:ud v:nameU="State" v:val="VT0(6):26"/>
				<v:ud v:nameU="TextPosition" v:val="VT0(2):26"/>
				<v:ud v:nameU="TextWidth" v:val="VT0(0.75):1"/>
				<v:ud v:nameU="TextOffSet" v:val="VT0(0.038194444444444):29"/>
				<v:ud v:nameU="SetHeight" v:val="VT0(0):26"/>
				<v:ud v:nameU="SetShapeHeight" v:val="VT0(0):26"/>
				<v:ud v:nameU="TextWidth" v:prompt="" v:val="VT0(1.1811023622047):1"/>
				<v:ud v:nameU="TextOffSet" v:prompt="" v:val="VT0(0.03827809852474):29"/>
			</v:userDefs>
			<v:textBlock v:margins="rect(4,4,4,4)" v:tabSpace="42.5197"/>
			<v:textRect cx="42.5197" cy="581.764" width="50.92" height="15.2035"/>
			<g id="shadow38-167" v:groupContext="shadow" v:shadowOffsetX="0.345598" v:shadowOffsetY="-1.97279" v:shadowType="1"
					transform="matrix(1,0,0,1,0.345598,1.97279)" class="st3">
				<path d="M-0 588.52 A6.75602 6.75602 -180 0 0 6.76 595.28 L78.28 595.28 A6.75602 6.75602 -180 0 0 85.04 588.52 L85.04
							 575.01 A6.75602 6.75602 -180 0 0 78.28 568.25 L6.76 568.25 A6.75602 6.75602 -180 0 0 -0 575.01 L0 588.52
							 Z" class="st26"/>
			</g>
			<path d="M-0 588.52 A6.75602 6.75602 -180 0 0 6.76 595.28 L78.28 595.28 A6.75602 6.75602 -180 0 0 85.04 588.52 L85.04
						 575.01 A6.75602 6.75602 -180 0 0 78.28 568.25 L6.76 568.25 A6.75602 6.75602 -180 0 0 -0 575.01 L0 588.52
						 Z" class="st27"/>
			<text x="22.12" y="583.56" class="st28" v:langID="1053"><v:paragraph v:horizAlign="1"/><v:tabList/>RESEARCHER</text>		</g>
		<g id="shape39-172" v:mID="39" v:groupContext="shape" transform="translate(176.513,-150.529)">
			<title>Action.216</title>
			<desc>Script programmer</desc>
			<v:userDefs>
				<v:ud v:nameU="Sharpness" v:val="VT0(0.125):26"/>
				<v:ud v:nameU="State" v:val="VT0(6):26"/>
				<v:ud v:nameU="TextPosition" v:val="VT0(2):26"/>
				<v:ud v:nameU="TextWidth" v:val="VT0(0.75):1"/>
				<v:ud v:nameU="TextOffSet" v:val="VT0(0.038194444444444):29"/>
				<v:ud v:nameU="SetHeight" v:val="VT0(0):26"/>
				<v:ud v:nameU="SetShapeHeight" v:val="VT0(0):26"/>
				<v:ud v:nameU="TextWidth" v:prompt="" v:val="VT0(1.1811023622047):1"/>
				<v:ud v:nameU="TextOffSet" v:prompt="" v:val="VT0(0.038901134575738):29"/>
			</v:userDefs>
			<v:textBlock v:margins="rect(4,4,4,4)" v:tabSpace="42.5197"/>
			<v:textRect cx="42.5197" cy="581.674" width="47.77" height="22.4034"/>
			<g id="shadow39-173" v:groupContext="shadow" v:shadowOffsetX="0.345598" v:shadowOffsetY="-1.97279" v:shadowType="1"
					transform="matrix(1,0,0,1,0.345598,1.97279)" class="st3">
				<path d="M0 588.47 A6.80088 6.80088 -180 0 0 6.8 595.28 L78.24 595.28 A6.80088 6.80088 -180 0 0 85.04 588.47 L85.04
							 574.87 A6.80088 6.80088 -180 0 0 78.24 568.07 L6.8 568.07 A6.80088 6.80088 -180 0 0 0 574.87 L0 588.47
							 Z" class="st8"/>
			</g>
			<path d="M0 588.47 A6.80088 6.80088 -180 0 0 6.8 595.28 L78.24 595.28 A6.80088 6.80088 -180 0 0 85.04 588.47 L85.04 574.87
						 A6.80088 6.80088 -180 0 0 78.24 568.07 L6.8 568.07 A6.80088 6.80088 -180 0 0 0 574.87 L0 588.47 Z"
					class="st9"/>
			<text x="33.75" y="579.87" class="st28" v:langID="1053"><v:paragraph v:horizAlign="1"/><v:tabList/>Script<v:newlineChar/><tspan
						x="23.7" dy="1.2em" class="st7">programmer</tspan></text>		</g>
		<g id="shape40-179" v:mID="40" v:groupContext="shape" transform="translate(404.919,-522.142)">
			<title>Första nod.40</title>
			<v:userDefs>
				<v:ud v:nameU="visVersion" v:prompt="" v:val="VT0(15):26"/>
			</v:userDefs>
			<g id="shadow40-180" v:groupContext="shadow" v:shadowOffsetX="0.345598" v:shadowOffsetY="-1.97279" v:shadowType="1"
					transform="matrix(1,0,0,1,0.345598,1.97279)" class="st3">
				<ellipse cx="6.10461" cy="589.171" rx="6.10461" ry="6.10461" class="st19"/>
			</g>
			<ellipse cx="6.10461" cy="589.171" rx="6.10461" ry="6.10461" class="st20"/>
		</g>
		<g id="shape41-184" v:mID="41" v:groupContext="shape" v:layerMember="0" transform="translate(451.265,-308.241)">
			<title>Dynamic connector</title>
			<path d="M0 601.87 L30.84 602.85" class="st29"/>
		</g>
		<g id="shape42-187" v:mID="42" v:groupContext="shape" v:layerMember="0" transform="translate(482.106,-209.748)">
			<title>Dynamic connector.42</title>
			<path d="M0 589 L-31.15 587.38" class="st29"/>
		</g>
		<g id="shape44-190" v:mID="44" v:groupContext="shape" transform="translate(482.106,-89.4155)">
			<title>Ark.44</title>
			<desc>RESULT FOR EACH CONFIGURATION 1. Dictionary + corpus (as spec...</desc>
			<v:textBlock v:margins="rect(4,4,4,4)" v:tabSpace="42.5197" v:verticalAlign="0"/>
			<v:textRect cx="101.126" cy="553.491" width="202.26" height="83.5684"/>
			<path d="M0 595.28 L202.25 595.28 L202.25 511.71 L0 511.71 L0 595.28 Z" class="st30"/>
			<text x="4" y="522.91" class="st31" v:langID="1053"><v:paragraph/><v:tabList/>RESULT <tspan class="st32">FOR EACH CONFIGURATION<v:newlineChar/></tspan><tspan
						x="4" dy="1.2em" class="st32">1</tspan><tspan class="st32">. </tspan><tspan class="st32">Dictionary </tspan><tspan
						class="st32">+ </tspan><tspan class="st32">corpus </tspan><tspan class="st32">(</tspan><tspan class="st32">as specified</tspan><tspan
						class="st32">)<v:newlineChar/></tspan><tspan x="4" dy="1.2em" class="st32">3</tspan><tspan class="st32">. </tspan><tspan
						class="st32">Topic model<v:newlineChar/></tspan><tspan x="4" dy="1.2em" class="st32">4</tspan><tspan
						class="st32">. </tspan><tspan class="st32">Rudimentery statistics<v:newlineChar/></tspan><tspan x="4"
						dy="1.2em" class="st32">5</tspan><tspan class="st32">. </tspan><tspan class="st32">Notebook </tspan><tspan
						class="st32">”</tspan><tspan class="st32">friendly</tspan><tspan class="st32">” </tspan><tspan class="st32">data CSV</tspan><tspan
						class="st32">+</tspan><tspan class="st32">XLS</tspan><tspan class="st32">:<v:newlineChar/></tspan><tspan
						x="4" dy="1.2em" class="st32">    </tspan><tspan class="st32">document topic weights<v:newlineChar/></tspan><tspan
						x="4" dy="1.2em" class="st32">    </tspan><tspan class="st32">topic token weights<v:newlineChar/></tspan><tspan
						x="4" dy="1.2em" class="st32">    </tspan><tspan class="st32">topic overview</tspan><v:newlineChar/><v:paragraph/> </text>		</g>
		<g id="shape46-224" v:mID="46" v:groupContext="shape" v:layerMember="0" transform="translate(482.106,-142.209)">
			<title>Dynamic connector.46</title>
			<path d="M0 590.58 L-30.84 585.79" class="st29"/>
		</g>
		<g id="shape83-227" v:mID="83" v:groupContext="shape" transform="translate(482.106,-184.819)">
			<title>Ark.83</title>
			<desc>COMPUTE CONFIGURATION 1. LDA-model 2. LDA engine (MALLET or g...</desc>
			<v:textBlock v:margins="rect(4,4,4,4)" v:tabSpace="42.5197" v:verticalAlign="0"/>
			<v:textRect cx="101.126" cy="569.303" width="202.26" height="51.9445"/>
			<path d="M0 595.28 L202.25 595.28 L202.25 543.33 L0 543.33 L0 595.28 Z" class="st33"/>
			<text x="4" y="554.53" class="st31" v:langID="1053"><v:paragraph/><v:tabList/>COMPUTE CONFIGURATION<v:newlineChar/><tspan
						x="4" dy="1.2em" class="st32">1</tspan><tspan class="st32">. </tspan><tspan class="st32">LDA</tspan><tspan
						class="st32">-</tspan><tspan class="st32">model<v:newlineChar/></tspan><tspan x="4" dy="1.2em" class="st32">2</tspan><tspan
						class="st32">. </tspan><tspan class="st32">LDA engine </tspan><tspan class="st32">(</tspan><tspan
						class="st32">MALLET or gensim</tspan><tspan class="st32">)<v:newlineChar/><v:paragraph/></tspan><tspan
						x="4" dy="1.313em" class="st32">3</tspan><tspan class="st32">. </tspan><tspan class="st32">LDA params</tspan><tspan
						class="st32">: (</tspan><tspan class="st32">dim</tspan><tspan class="st32">, </tspan><tspan class="st32">iterations etc</tspan><tspan
						class="st32">)</tspan></text>		</g>
		<g id="shape84-249" v:mID="84" v:groupContext="shape" transform="translate(482.106,-248.598)">
			<title>Ark.84</title>
			<desc>CORPUS CONFIGURATION 1. tokenizer, lowercase, stopwords 2. Id...</desc>
			<v:textBlock v:margins="rect(4,4,4,4)" v:tabSpace="42.5197" v:verticalAlign="0"/>
			<v:textRect cx="101.126" cy="546.405" width="202.26" height="97.7416"/>
			<path d="M0 595.28 L202.25 595.28 L202.25 497.53 L0 497.53 L0 595.28 Z" class="st33"/>
			<text x="4" y="508.73" class="st31" v:langID="1053"><v:paragraph/><v:tabList/>CORPUS CONFIGURATION<v:newlineChar/><tspan
						x="4" dy="1.2em" class="st32">1</tspan><tspan class="st32">. </tspan><tspan class="st32">tokenizer</tspan><tspan
						class="st32">, </tspan><tspan class="st32">lowercase</tspan><tspan class="st32">, </tspan><tspan
						class="st32">stopwords<v:newlineChar/></tspan><tspan x="4" dy="1.2em" class="st32">2</tspan><tspan
						class="st32">. </tspan><tspan class="st32">Identify phrases<v:newlineChar/></tspan><tspan x="4" dy="1.2em"
						class="st32">3</tspan><tspan class="st32">. </tspan><tspan class="st32">POS</tspan><tspan class="st32">-</tspan><tspan
						class="st32">tag filter<v:newlineChar/></tspan><tspan x="4" dy="1.2em" class="st32">4</tspan><tspan
						class="st32">. </tspan><tspan class="st32">Word length filter<v:newlineChar/></tspan><tspan x="4"
						dy="1.2em" class="st32">5</tspan><tspan class="st32">. </tspan><tspan class="st32">Select word or lemma<v:newlineChar/></tspan><tspan
						x="4" dy="1.2em" class="st32">5</tspan><tspan class="st32">. </tspan><tspan class="st32">Chunk size<v:newlineChar/></tspan><tspan
						x="4" dy="1.2em" class="st32">6</tspan><tspan class="st32">. </tspan><tspan class="st32">Apply TF</tspan><tspan
						class="st32">-</tspan><tspan class="st32">IDF model<v:newlineChar/><v:paragraph/></tspan><tspan x="4"
						dy="1.313em" class="st32">*. </tspan><tspan class="st32">TODO bigrams</tspan><tspan class="st32">, </tspan><tspan
						class="st32">POS</tspan><tspan class="st32">-</tspan><tspan class="st32">suffix </tspan><tspan class="st32">(</tspan><tspan
						class="st32">ambuiguty</tspan><tspan class="st32">)</tspan></text>		</g>
	</g>
</svg>
